<?xml version="1.0" encoding="utf-8"?>
<!-- Generator: Adobe Illustrator 24.2.3, SVG Export Plug-In . SVG Version: 6.00 Build 0)  -->
<svg version="1.1" id="Layer_1" xmlns="http://www.w3.org/2000/svg" xmlns:xlink="http://www.w3.org/1999/xlink" x="0px" y="0px"
	 viewBox="0 0 675.5 206.1" style="enable-background:new 0 0 675.5 206.1;" xml:space="preserve">
<g>
	<path d="M166.9,165.5l-38-96.5h-27.6v3.1c0,0,4.4,0,8,0c4.3,0,11.8-0.2,13.8,8.8c1.9,8.4-3.5,13-3.5,13l7.4,18.3
		c-8.4,0.1-27.8,0.3-29.7,0.3c-11.4-8.8-8.8-19.8-8.8-19.8l0,0l9.2-34.1c0,0,0,0,0,0c1.8-4.8,5.8-6.1,11.6-10.1
		c6.4-4.3,8.2-8.1,9.7-12.1c1.1-2.7,2-4.9,5.2-4.9c2.6,0,5.1,0,5.1,0v-3.1c0,0-2.7,0-5.6,0c-4.7,0-6.8,4-10.5,7.1
		c-7.1,5.8-21.1,5.6-25.8,8.3c-4.7,2.7-6.7,9.4-6.7,9.4l-23.1,85l0,0c-1.3,4.8-1.1,4.1-1.8,6.6c-1.2,4.2-2.3,10.1-11.5,15.9
		c-2.4,1.6-5.2,5.1-4.7,10.9c1.7,0,3.1,0,3.1,0s-1.6-12.5,14.5-12.5c11.7,0,16.1-9.6,17.7-16.2l8.7-32.3c4,0.2,6.1,3.1,8.3,6.5
		c4,6.7,6.1,8.3,8.5,8.3c2.8,0,23.3,0,31.9,0l16.5,40.9l-0.2,0l-3.1,2.4h-4.2v3.1h36.2v-3.1h-5.1L166.9,165.5z"/>
	<path d="M239.4,148c-0.1,9-7.9,15.4-16.9,15.4c-8.3,0-15.6-6.8-15.6-21.3l-0.1,6.5c0-0.2,0-0.4,0-0.6v-1.2V76.6
		c0.2-8,10.6-8,14.2-8c3.6,0,8,0,8,0v-3.1h-22.2v-6.9c0-6.8,1.3-6.1,7.1-10.1c6.4-4.3,8.2-8.1,9.7-12.1c1.1-2.7,2-4.9,5.2-4.9
		c2.6,0,5.1,0,5.1,0v-3.1c0,0-2.7,0-5.6,0c-4.7,0-6.6,4.3-10.5,7.1c-9.4,6.6-24.3,3.4-29,6.1c-4.7,2.7-4.2,7.5-4.2,7.5v10.4
		c-0.7,8.6-10.8,8.1-14.2,8.1c-3.6,0-8,0-8,0v3.1h22.2v76v3.1c0,0,14.8,2.1,22.2,17.8v0.1c3.6,2.1,7.8,3.9,12.2,3.9
		c16.8,0,24.3-10.9,24.3-24.9c0-1.6,0-4.7,0-4.7h-3.9C239.4,142.2,239.5,146,239.4,148z"/>
	<path d="M459.7,86.4c-7.1,5.8-11,3.5-15.8,6c-4.9,2.5-5.7,5.7-5.7,7.5h0v0c0,0,0,0,0,0v49.7h0c-0.2,2.7-1.7,9-12.2,10.8
		c-12.3,2.2-19.2-4.7-22.9-10.4c0-1.6,0-2.5,0-3.1v-1v-42.9v-1.4v-1h0.4l3.6,5.1c2.6,0,10.1,0,10.1,0v-3.1c0,0-2.6,0-5.4,0
		c0,0-0.8-0.4-2.7-4.5c-1.3-2.8-4.7-10.5-12.2-10.5c-14.9,0-16,10.8-16,10.8v3.2v1.4v42.9v1v0.6c0,0,18.3,0.5,20.1,16.1
		c2.1,1.2,16.1,3.4,25,9.7c10.9,0,22.8-10.3,24.2-18c2.2-1.7,5.6-2.7,5.6-2.7v-3v-1.2v-48.2c0.1-0.7,0.5-1.3,1.8-2.4
		c6-4.9,6.4-6.7,7.9-10.6c1.1-2.7,2-4.9,5.2-4.9c2.6,0,5.1,0,5.1,0v-3.1c0,0-2.7,0-5.6,0C465.5,79.3,463.4,83.3,459.7,86.4z"/>
	<path d="M613.5,155.2l-3,5.1h-0.4V158v-45.4v-1.2v-3c0,0-3.4-1-5.6-2.7c-1.4-7.7-13.2-18-24.2-18c-8.9,6.4-22.9,8.5-25,9.7
		c-0.5,4.5-2.4,7.8-4.9,10.1c-1.1-0.5-2.3-1.1-3.4-1.9c-2.1-8.1-13.2-18-24.2-18c-8.9,6.4-22.9,8.5-25,9.7
		c-1.8,15.6-20.1,16.1-20.1,16.1v0.6v1V158v1.4v3.2c0,0,0.2,10.8,16,10.8c8.3,0,11-7.6,12.2-10.5c1.6-4.2,3-4.5,3-4.5
		c2.8,0,3.6,0,3.6,0v-3.1c0,0-6,0-8.6,0l-3.6,5.1H500v-1V158v-42.9v-1c0-0.6,0-1.6,0-3.1c3.7-5.7,10.6-12.6,22.9-10.4
		c10.5,1.8,12,8.1,12.2,10.8h0V158v3.2v1.4c0,0,0,10.8,11.5,10.8c8.3,0,10.3-7.6,11.5-10.5c1.6-4.2,3-4.5,3-4.5c2.8,0,3.5,0,3.5,0
		v-3.1c0,0-6,0-8.6,0l-3,5.1h-0.4V158v-42.9v-2.5v-1.2V111c3.7-5.7,15.3-12.6,27.6-10.4c10.5,1.8,12,8.1,12.2,10.8h0V158v3.2v1.4
		c0,0,0,10.8,11.5,10.8c8.3,0,10.3-7.6,11.5-10.5c1.6-4.2,3-4.5,3-4.5c2.8,0,3.5,0,3.5,0v-3.1C622.1,155.2,616.1,155.2,613.5,155.2z
		"/>
	<path d="M381,63.7c0,0-2.4,0-5.3,0c-4.7,0-6.8,4-10.5,7.1c-7.1,5.8-12.4,5.8-17.2,8.3c-6.9,3.6-6.7,8.5-6.7,8.5v54.2h0l0,5
		c0,3.1,0.4,10.2-3.5,15c-5,6.2-13.2,7-18.8,7c0,0.4,0,0.8,0,1.1v2h11.9h5.9h2.9c0.5-4.4,8.2-9.9,12.9-13.1
		c4.8-3.4,6.3-7.3,6.3-11.2l0,0c0-0.1,0-0.2,0-0.2c0-2.4,0-4.3,0-5.2v-0.6v-54c0-0.8,0.1-1.9,2.4-3.9c5.9-5,8.2-8.1,9.7-12.1
		c1.1-2.7,2-4.9,5.2-4.9c2.6,0,4.8,0,4.8,0V63.7z"/>
	<circle cx="350.1" cy="53.4" r="11.6"/>
	<path d="M294.2,114.6c-2.5,0-4.1,0-4.1,0v2v1.1h24.3l9.2-23.8l-2.8-6.2h-29.1l-0.1,0.7l0,0c-0.8,3.7-3.2,8.1-8.4,9.3v0
		c-4.6,1.1-13.8-1.5-14-10h0c0,0,0-0.8,0.6-1.5c1.3-1.6,2.9-3.4,2.9-6c0-2.8,0-5.6,0-5.6h-3.1c0,0,0,2.5,0,5.1
		c0,1.6-0.3,2.6-1.3,3.5c-0.3,0.3-1,1.1-1.7,1.9c-0.4,0.5-2.1,2.7-2.1,2.7c-2,2.6-3.7,5-3.7,9.8c0,1.7,0,3.1,0,4.2h0v65.5l-2.9,1.7
		h-5.7v3.1h39.4v-3.1h-5.4l-3.2-1.9v-59.4c0-3.4,2.4-6.9,7-9c4.3-2,12.7-0.9,12.7,6.8S296.7,114.6,294.2,114.6z"/>
</g>
</svg>
