<?xml version="1.0" encoding="utf-8"?>
<!-- Generator: Adobe Illustrator 24.2.0, SVG Export Plug-In . SVG Version: 6.00 Build 0)  -->
<svg version="1.1" id="Layer_1" xmlns="http://www.w3.org/2000/svg" xmlns:xlink="http://www.w3.org/1999/xlink" x="0px" y="0px"
	 viewBox="0 0 26 27" style="enable-background:new 0 0 26 27;" xml:space="preserve">
<style type="text/css">
	.st0{fill:#F7F7F7;}
</style>
<path class="st0" d="M25,0H1C0.5,0,0,0.7,0,1.3v24.3C0,26.4,0.5,27,1,27H25c0.5,0,0.9-0.6,0.9-1.3V1.3C26,0.6,25.5,0,25,0z M8,6h10
	v6.6l-4.5,3.9c-0.2,0.3-0.6,0.3-0.9,0.1l-0.1-0.1L8,12.6V6z M21.1,22H5V12l7.5,6.5c0.3,0.2,0.7,0.2,1,0L21,12h0.1V22z"/>
</svg>
