<?xml version="1.0" encoding="utf-8"?>
<!-- Generator: Adobe Illustrator 24.2.0, SVG Export Plug-In . SVG Version: 6.00 Build 0)  -->
<svg version="1.1" id="Layer_1" xmlns="http://www.w3.org/2000/svg" xmlns:xlink="http://www.w3.org/1999/xlink" x="0px" y="0px"
	 viewBox="0 0 26 27" style="enable-background:new 0 0 26 27;" xml:space="preserve">
<style type="text/css">
	.st0{fill:#D1D1D1;}
</style>
<path class="st0" d="M0,1v25c0,0.6,0.5,1,1,1h24c0.6,0,1-0.5,1-1V1c0-0.6-0.5-1-1-1H1C0.5,0,0,0.5,0,1z M22,6.3l-1.4,1.4
	c-0.1,0.1-0.2,0.3-0.2,0.4v10.6c0,0.2,0,0.3,0.2,0.4l1.4,1.4V21h-7.1v-0.3l1.5-1.5c0.1-0.1,0.1-0.2,0.1-0.4v-8.6l-4,10.8h-0.5
	L7.2,10.2v7.2c0,0.3,0.1,0.6,0.3,0.8l1.9,2.4V21H4v-0.3l1.9-2.4c0.2-0.2,0.3-0.5,0.2-0.8V9.1c0-0.2-0.1-0.5-0.2-0.6L4.2,6.3V6h5.2
	l4,9.3L17,6h5V6.3z"/>
</svg>
